<?xml version="1.0" encoding="UTF-8"?>
<!DOCTYPE svg PUBLIC "-//W3C//DTD SVG 1.1//EN" "http://www.w3.org/Graphics/SVG/1.1/DTD/svg11.dtd">
<svg version="1.2" width="201.79mm" height="197.21mm" viewBox="0 0 20179 19721" preserveAspectRatio="xMidYMid" fill-rule="evenodd" stroke-width="28.222" stroke-linejoin="round" xmlns="http://www.w3.org/2000/svg" xmlns:ooo="http://xml.openoffice.org/svg/export" xmlns:xlink="http://www.w3.org/1999/xlink" xmlns:presentation="http://sun.com/xmlns/staroffice/presentation" xmlns:smil="http://www.w3.org/2001/SMIL20/" xmlns:anim="urn:oasis:names:tc:opendocument:xmlns:animation:1.0" xml:space="preserve">
 <defs class="ClipPathGroup">
  <clipPath id="presentation_clip_path" clipPathUnits="userSpaceOnUse">
   <rect x="0" y="0" width="20179" height="19721"/>
  </clipPath>
  <clipPath id="presentation_clip_path_shrink" clipPathUnits="userSpaceOnUse">
   <rect x="20" y="19" width="20139" height="19682"/>
  </clipPath>
 </defs>
 <defs class="TextShapeIndex">
  <g ooo:slide="id1" ooo:id-list="id3 id4 id5 id6 id7 id8 id9 id10 id11 id12 id13 id14 id15 id16 id17 id18 id19 id20 id21 id22 id23 id24"/>
 </defs>
 <defs class="EmbeddedBulletChars">
  <g id="bullet-char-template-57356" transform="scale(0.00048828125,-0.00048828125)">
   <path d="M 580,1141 L 1163,571 580,0 -4,571 580,1141 Z"/>
  </g>
  <g id="bullet-char-template-57354" transform="scale(0.00048828125,-0.00048828125)">
   <path d="M 8,1128 L 1137,1128 1137,0 8,0 8,1128 Z"/>
  </g>
  <g id="bullet-char-template-10146" transform="scale(0.00048828125,-0.00048828125)">
   <path d="M 174,0 L 602,739 174,1481 1456,739 174,0 Z M 1358,739 L 309,1346 659,739 1358,739 Z"/>
  </g>
  <g id="bullet-char-template-10132" transform="scale(0.00048828125,-0.00048828125)">
   <path d="M 2015,739 L 1276,0 717,0 1260,543 174,543 174,936 1260,936 717,1481 1274,1481 2015,739 Z"/>
  </g>
  <g id="bullet-char-template-10007" transform="scale(0.00048828125,-0.00048828125)">
   <path d="M 0,-2 C -7,14 -16,27 -25,37 L 356,567 C 262,823 215,952 215,954 215,979 228,992 255,992 264,992 276,990 289,987 310,991 331,999 354,1012 L 381,999 492,748 772,1049 836,1024 860,1049 C 881,1039 901,1025 922,1006 886,937 835,863 770,784 769,783 710,716 594,584 L 774,223 C 774,196 753,168 711,139 L 727,119 C 717,90 699,76 672,76 641,76 570,178 457,381 L 164,-76 C 142,-110 111,-127 72,-127 30,-127 9,-110 8,-76 1,-67 -2,-52 -2,-32 -2,-23 -1,-13 0,-2 Z"/>
  </g>
  <g id="bullet-char-template-10004" transform="scale(0.00048828125,-0.00048828125)">
   <path d="M 285,-33 C 182,-33 111,30 74,156 52,228 41,333 41,471 41,549 55,616 82,672 116,743 169,778 240,778 293,778 328,747 346,684 L 369,508 C 377,444 397,411 428,410 L 1163,1116 C 1174,1127 1196,1133 1229,1133 1271,1133 1292,1118 1292,1087 L 1292,965 C 1292,929 1282,901 1262,881 L 442,47 C 390,-6 338,-33 285,-33 Z"/>
  </g>
  <g id="bullet-char-template-9679" transform="scale(0.00048828125,-0.00048828125)">
   <path d="M 813,0 C 632,0 489,54 383,161 276,268 223,411 223,592 223,773 276,916 383,1023 489,1130 632,1184 813,1184 992,1184 1136,1130 1245,1023 1353,916 1407,772 1407,592 1407,412 1353,268 1245,161 1136,54 992,0 813,0 Z"/>
  </g>
  <g id="bullet-char-template-8226" transform="scale(0.00048828125,-0.00048828125)">
   <path d="M 346,457 C 273,457 209,483 155,535 101,586 74,649 74,723 74,796 101,859 155,911 209,963 273,989 346,989 419,989 480,963 531,910 582,859 608,796 608,723 608,648 583,586 532,535 482,483 420,457 346,457 Z"/>
  </g>
  <g id="bullet-char-template-8211" transform="scale(0.00048828125,-0.00048828125)">
   <path d="M -4,459 L 1135,459 1135,606 -4,606 -4,459 Z"/>
  </g>
  <g id="bullet-char-template-61548" transform="scale(0.00048828125,-0.00048828125)">
   <path d="M 173,740 C 173,903 231,1043 346,1159 462,1274 601,1332 765,1332 928,1332 1067,1274 1183,1159 1299,1043 1357,903 1357,740 1357,577 1299,437 1183,322 1067,206 928,148 765,148 601,148 462,206 346,322 231,437 173,577 173,740 Z"/>
  </g>
 </defs>
 <g>
  <g id="id2" class="Master_Slide">
   <g id="bg-id2" class="Background"/>
   <g id="bo-id2" class="BackgroundObjects"/>
  </g>
 </g>
 <g class="SlideGroup">
  <g>
   <g id="container-id1">
    <g id="id1" class="Slide" clip-path="url(#presentation_clip_path)">
     <g class="Page">
      <g class="com.sun.star.drawing.ClosedBezierShape">
       <g id="id3">
        <rect class="BoundingBox" stroke="none" fill="none" x="8477" y="15031" width="1494" height="4689"/>
        <path fill="rgb(0,0,0)" stroke="none" d="M 9767,19710 C 9730,19638 9654,19273 9654,19172 9654,19135 9642,19054 9628,18992 9614,18930 9584,18730 9561,18549 9538,18367 9509,18158 9495,18086 9481,18013 9451,17816 9428,17649 9405,17482 9375,17291 9362,17226 9284,16855 9228,16610 9185,16445 9154,16332 9142,16229 9153,16181 9163,16137 9172,16069 9174,16029 9177,15965 9167,15956 9100,15956 9045,15956 9017,15940 9005,15902 8974,15805 8759,15443 8613,15241 8533,15132 8472,15039 8477,15033 8493,15017 8758,15215 8895,15345 9022,15466 9124,15625 9124,15703 9124,15771 9169,15749 9204,15665 9222,15621 9244,15586 9253,15586 9262,15586 9334,15627 9412,15677 9562,15773 9576,15773 9760,15678 9803,15655 9839,15645 9839,15655 9839,15665 9776,15756 9700,15856 L 9561,16039 9461,15931 C 9406,15872 9355,15823 9348,15823 9342,15823 9336,15863 9336,15911 9336,15979 9362,16023 9455,16114 9521,16179 9574,16220 9574,16206 9575,16175 9781,15956 9810,15956 9821,15956 9862,16020 9901,16100 9983,16268 9989,16406 9929,16763 9874,17088 9841,17698 9818,18824 9803,19596 9793,19762 9767,19710 Z"/>
       </g>
      </g>
      <g class="com.sun.star.drawing.ClosedBezierShape">
       <g id="id4">
        <rect class="BoundingBox" stroke="none" fill="none" x="3595" y="14806" width="5881" height="4036"/>
        <path fill="rgb(255,0,0)" stroke="none" d="M 8689,18826 C 8674,18821 8519,18804 8343,18788 7857,18746 7054,18586 6586,18438 5523,18103 4605,17644 3775,17035 L 3596,16904 3703,16754 C 3945,16411 4564,15666 4607,15666 4632,15665 4713,15689 4787,15718 4860,15747 4925,15771 4930,15771 4935,15771 4947,15657 4958,15519 4968,15381 4986,15268 4996,15268 5007,15268 5051,15359 5093,15471 5188,15722 5211,15653 5142,15324 5098,15112 5098,15097 5143,14967 5169,14892 5200,14821 5212,14808 5239,14777 5531,15055 5675,15248 5737,15333 5813,15479 5845,15579 5991,16029 6007,16062 6098,16100 6146,16120 6289,16162 6418,16193 6546,16225 6673,16256 6698,16264 6737,16275 6744,16258 6744,16156 6744,15981 6628,15519 6537,15334 6494,15247 6464,15171 6469,15165 6482,15151 6633,15268 6741,15377 6827,15463 7039,15868 7076,16017 7100,16110 7141,16135 7141,16056 7141,15967 7042,15623 6984,15510 6859,15268 6578,15062 6201,14936 5814,14807 6181,14818 6665,14950 6852,15001 7183,15173 7375,15320 7654,15532 7834,15784 8040,16253 L 8095,16379 8538,16379 8980,16379 9041,16584 C 9098,16775 9166,17047 9229,17332 9243,17397 9273,17570 9295,17715 9337,17998 9340,18019 9398,18363 9419,18487 9445,18645 9456,18714 L 9475,18840 9095,18837 C 8886,18836 8703,18831 8689,18826 Z"/>
       </g>
      </g>
      <g class="com.sun.star.drawing.ClosedBezierShape">
       <g id="id5">
        <rect class="BoundingBox" stroke="none" fill="none" x="9924" y="13526" width="5406" height="5289"/>
        <path fill="rgb(255,0,0)" stroke="none" d="M 9959,18264 C 9982,17543 10009,17204 10075,16802 10148,16361 10145,16271 10049,15993 9963,15745 9962,15710 10040,15329 10052,15268 10036,15190 9985,15056 9946,14953 9919,14863 9925,14856 9963,14818 10538,15116 10877,15349 10981,15421 11088,15480 11114,15480 11182,15480 11484,15362 11700,15252 11911,15145 12247,14928 12247,14900 12247,14844 11789,14491 11522,14341 11435,14293 11229,14191 11063,14114 10896,14038 10753,13967 10743,13956 10719,13930 11271,13965 11421,14000 11648,14053 11938,14163 12364,14360 12595,14467 12790,14549 12796,14543 12820,14519 12488,14283 12274,14172 12150,14108 11924,14016 11771,13967 L 11493,13879 10780,13881 10068,13883 10183,13834 C 10623,13647 11506,13501 12022,13529 12433,13552 12670,13594 12825,13673 13075,13799 13316,14120 13368,14396 13380,14460 13440,14544 13568,14678 13724,14841 13764,14903 13846,15114 13899,15250 13957,15379 13975,15402 13992,15425 14126,15549 14271,15677 14417,15806 14625,15989 14734,16085 14842,16181 15021,16347 15130,16452 L 15329,16645 15210,16753 C 14570,17338 13364,18010 12352,18346 11721,18556 10892,18735 10316,18786 10149,18801 9996,18813 9977,18813 9949,18813 9945,18709 9959,18264 Z"/>
       </g>
      </g>
      <g class="com.sun.star.drawing.ClosedBezierShape">
       <g id="id6">
        <rect class="BoundingBox" stroke="none" fill="none" x="3040" y="14249" width="2089" height="3165"/>
        <path fill="rgb(0,0,0)" stroke="none" d="M 3642,16022 C 3860,15542 4100,14998 4176,14815 4275,14577 4348,14445 4429,14353 4563,14203 4588,14211 4628,14421 4642,14499 4660,14568 4667,14575 4674,14582 4778,14576 4898,14561 5019,14547 5121,14538 5126,14542 5142,14555 5048,14853 4997,14950 4970,15001 4846,15156 4720,15294 4389,15659 3930,16237 3669,16617 3544,16799 3414,16988 3380,17037 3290,17167 3040,17441 3040,17411 3040,17366 3228,16933 3642,16022 Z"/>
       </g>
      </g>
      <g class="com.sun.star.drawing.ClosedBezierShape">
       <g id="id7">
        <rect class="BoundingBox" stroke="none" fill="none" x="13971" y="14635" width="2203" height="2803"/>
        <path fill="rgb(0,0,0)" stroke="none" d="M 15728,16953 C 15416,16556 14878,16007 14363,15559 14239,15452 14123,15350 14105,15334 14072,15306 13955,14926 13973,14908 13978,14903 14075,14918 14187,14941 14300,14964 14398,14977 14405,14970 14412,14963 14431,14885 14448,14796 L 14478,14635 14605,14704 C 14676,14742 14733,14782 14733,14793 14733,14835 15066,15506 15229,15793 15322,15959 15520,16286 15667,16521 15958,16986 16206,17437 16169,17437 16157,17437 16098,17387 16039,17325 15980,17263 15840,17096 15728,16953 Z"/>
       </g>
      </g>
      <g class="com.sun.star.drawing.ClosedBezierShape">
       <g id="id8">
        <rect class="BoundingBox" stroke="none" fill="none" x="-1" y="8383" width="3863" height="8211"/>
        <path fill="rgb(255,0,0)" stroke="none" d="M 2851,16270 C 2556,15979 2451,15853 2258,15560 2014,15188 1683,14570 1584,14300 1365,13702 1281,13346 1110,12291 1076,12077 960,11216 922,10889 843,10213 724,9770 484,9263 339,8958 135,8589 46,8471 -35,8364 -8,8355 122,8447 294,8569 872,9144 973,9293 1277,9744 1530,10459 1679,11286 1815,12046 2027,12743 2296,13318 2414,13571 2742,14106 2801,14142 2821,14155 2862,14065 2950,13815 2979,13731 3017,13849 3081,14223 3098,14324 3100,14326 3125,14262 3141,14219 3140,14130 3122,14006 3094,13815 3070,13733 2965,13475 2934,13399 2914,13336 2919,13336 2943,13336 3214,13724 3322,13912 3475,14181 3596,14558 3596,14767 3596,14923 3600,14931 3728,15067 3801,15144 3861,15218 3861,15232 3861,15289 3331,16441 3246,16570 3212,16622 3192,16606 2851,16270 Z"/>
       </g>
      </g>
      <g class="com.sun.star.drawing.ClosedBezierShape">
       <g id="id9">
        <rect class="BoundingBox" stroke="none" fill="none" x="13622" y="10326" width="4966" height="6002"/>
        <path fill="rgb(255,0,0)" stroke="none" d="M 15653,16281 C 15539,16152 15233,15585 14985,15046 14881,14819 14837,14758 14658,14584 14505,14435 14426,14331 14353,14185 14286,14050 14193,13923 14061,13788 13864,13585 13622,13243 13622,13167 13622,13144 13658,12995 13702,12836 13846,12317 13889,11986 13905,11268 L 13920,10614 14055,10570 C 14130,10546 14203,10517 14217,10506 14260,10473 14683,10350 14817,10332 14909,10319 14961,10327 15028,10363 15094,10399 15181,10412 15371,10414 15585,10417 15637,10427 15705,10475 15778,10527 15800,10530 15926,10506 16228,10449 17099,10638 17404,10827 17635,10970 17684,10992 17868,11027 17970,11046 18149,11062 18265,11063 18587,11063 18601,11070 18581,11218 18551,11435 18407,11992 18287,12357 17824,13761 17067,14990 15993,16082 15861,16217 15740,16327 15723,16327 15707,16327 15675,16306 15653,16281 Z"/>
       </g>
      </g>
      <g class="com.sun.star.drawing.ClosedBezierShape">
       <g id="id10">
        <rect class="BoundingBox" stroke="none" fill="none" x="1247" y="0" width="15974" height="15585"/>
        <path fill="rgb(255,0,0)" stroke="none" d="M 9410,15480 C 9366,15479 9125,15314 9125,15285 9125,15267 9155,15164 9190,15055 L 9255,14858 9204,14567 C 9176,14407 9136,14210 9115,14130 9077,13986 9077,13984 9145,13913 L 9213,13841 9090,13728 8968,13614 9007,13376 C 9109,12750 9010,12319 8632,11747 8569,11651 8517,11556 8517,11535 8517,11513 8542,11425 8573,11338 8619,11207 8626,11142 8614,10955 8606,10832 8586,10692 8569,10645 8549,10588 8542,10377 8548,10004 8553,9699 8548,9448 8538,9448 8527,9448 8507,9499 8491,9561 8476,9623 8452,9710 8438,9754 8404,9857 8403,10560 8436,10688 8449,10740 8474,10869 8491,10974 L 8521,11164 8428,11331 8334,11499 8466,11710 C 8703,12090 8853,12428 8887,12662 8904,12778 8914,12933 8909,13006 L 8901,13138 8714,12887 C 8422,12493 8414,12480 8339,12242 8287,12076 8260,12023 8237,12042 8215,12060 8171,12039 8092,11973 7872,11789 7784,11773 7406,11850 7116,11910 7053,11916 7072,11886 7083,11869 7227,11747 7393,11614 7559,11481 7718,11334 7745,11288 7803,11190 7893,10931 7875,10914 7869,10907 7810,10988 7745,11094 7649,11250 7593,11309 7443,11408 7136,11612 6892,11911 6654,12376 6532,12615 6528,12620 6419,12636 L 6308,12653 6317,12768 C 6326,12879 6318,12893 6131,13103 5854,13415 5704,13649 5570,13980 5539,14056 5517,14078 5482,14067 5456,14060 5350,14046 5246,14036 L 5057,14018 4975,13859 C 4929,13771 4892,13684 4892,13666 4892,13647 4950,13590 5020,13538 5271,13354 5524,13032 5702,12668 5765,12539 5793,12510 5891,12473 5980,12439 6002,12419 5991,12380 5983,12353 5970,12307 5962,12277 5951,12238 5982,12185 6082,12075 6255,11886 6347,11701 6440,11352 6480,11199 6530,11013 6551,10938 6571,10863 6624,10752 6667,10692 6794,10517 6939,10271 7131,9906 7230,9720 7377,9483 7459,9380 7540,9278 7620,9158 7637,9116 7653,9073 7678,8894 7692,8718 7719,8374 7728,8348 7955,7997 8041,7866 8044,7853 8003,7812 7968,7777 7920,7770 7755,7779 7380,7798 7290,7791 7166,7735 6819,7575 6283,7412 5832,7329 5565,7280 5405,7270 4826,7265 4448,7262 4204,7264 4284,7269 4364,7275 4656,7297 4933,7319 5210,7340 5451,7358 5469,7358 5488,7358 5501,7398 5501,7460 5501,7515 5509,7569 5519,7579 5528,7588 5612,7554 5704,7504 5796,7453 5871,7420 5871,7429 5871,7438 5837,7501 5794,7568 5715,7693 5615,7901 5545,8086 5524,8144 5491,8230 5474,8278 5456,8325 5431,8364 5417,8364 5404,8364 5246,8222 5068,8048 4753,7742 4737,7731 4547,7676 4241,7587 4214,7573 4086,7436 3955,7296 3943,7262 4013,7244 4038,7237 3985,7231 3894,7229 3803,7227 3728,7216 3728,7203 3728,7171 4025,7050 4327,6959 4981,6762 5732,6672 6798,6664 7702,6658 7919,6702 8194,6948 8352,7089 8412,7120 8525,7120 8665,7120 8735,7030 9372,6042 9440,5936 9552,5763 9620,5658 9688,5552 9906,5299 10105,5094 10489,4699 10604,4531 10717,4202 10770,4048 10802,4002 10940,3880 11076,3760 11108,3714 11148,3584 11244,3265 11300,3141 11414,2993 11593,2760 11762,2634 12067,2506 12424,2356 12538,2299 12538,2275 12538,2236 11810,2461 11570,2574 11343,2680 11119,3022 11047,3369 11005,3575 10973,3630 10768,3850 10681,3944 10560,4122 10478,4275 10303,4602 10214,4734 10031,4937 9853,5134 9674,5373 9416,5754 9218,6048 9218,6049 9112,6047 8848,6042 8258,5793 7642,5427 L 7380,5272 6870,5517 C 6590,5652 6242,5813 6096,5874 5729,6029 5685,6073 5552,6419 L 5481,6604 5194,6662 C 4779,6746 4361,6850 4075,6939 3939,6981 3822,7010 3815,7003 3797,6986 3857,6556 3905,6366 3956,6162 4109,5753 4216,5533 4550,4850 4928,4339 5632,3620 6255,2982 6715,2667 7379,2424 7744,2290 8506,2120 8980,2066 9125,2050 9328,2022 9430,2005 9607,1976 9589,1974 9038,1961 L 8462,1948 8621,1776 C 8791,1591 8807,1564 8735,1578 8516,1622 8381,1659 8288,1698 8189,1741 8174,1760 8123,1914 8069,2075 8061,2084 7954,2114 7728,2179 7293,2280 7283,2270 7265,2253 7350,2071 7449,1917 L 7544,1768 7471,1787 C 7282,1834 7013,1968 6996,2023 6987,2054 6957,2168 6930,2275 6902,2382 6876,2473 6872,2477 6839,2506 6314,2755 6285,2755 6255,2755 6254,2723 6283,2550 6302,2437 6330,2304 6345,2254 6361,2204 6368,2157 6361,2151 6324,2114 5998,2391 5924,2523 5870,2619 5865,2653 5879,2877 L 5893,3124 5647,3336 C 5511,3453 5389,3548 5374,3548 5360,3548 5336,3498 5320,3436 5266,3216 5256,3049 5289,2874 5307,2778 5316,2693 5309,2686 5283,2661 4996,2981 4939,3098 4865,3250 4861,3579 4928,3872 L 4975,4077 4796,4302 C 4698,4426 4604,4527 4587,4527 4547,4527 4400,4319 4333,4168 4303,4101 4271,3966 4261,3870 L 4242,3694 4186,3802 C 4082,3998 4019,4228 4019,4407 4019,4563 4032,4605 4153,4836 L 4286,5093 4163,5333 C 4095,5464 4029,5584 4016,5597 3953,5665 3702,5307 3620,5033 L 3586,4918 3549,5020 C 3528,5076 3505,5225 3498,5349 3482,5603 3514,5708 3689,5972 3796,6133 3801,6156 3772,6362 L 3750,6517 3678,6448 C 3638,6410 3547,6277 3475,6153 L 3345,5926 3336,6159 C 3332,6288 3341,6438 3358,6493 3374,6548 3464,6694 3558,6817 L 3728,7040 3563,7160 3398,7280 3592,7262 3785,7244 3909,7385 C 4243,7766 4329,7953 4302,8243 4271,8580 4216,8669 3884,8922 3770,9008 3664,9102 3650,9130 3623,9179 3628,9203 3772,9686 3819,9846 3852,10239 3811,10148 3797,10119 3725,9911 3651,9686 3430,9020 3443,9079 3505,9029 3679,8888 3789,8786 3778,8774 3757,8754 3271,8955 3206,9011 3202,9014 3282,9190 3384,9402 3565,9780 3571,9798 3647,10246 3793,11112 3805,12169 3673,12522 3582,12766 3559,12692 3539,12085 3522,11546 3494,11352 3379,10969 3314,10751 3305,10467 3356,10208 L 3390,10029 3280,9845 C 3045,9449 2773,8834 2814,8792 2822,8785 2887,8758 2959,8732 3031,8707 3242,8601 3429,8498 3615,8394 3813,8302 3867,8294 3922,8285 3966,8268 3966,8256 3966,8244 3892,8218 3801,8198 L 3636,8162 3622,7984 C 3615,7887 3597,7807 3583,7806 3538,7804 3376,7836 3285,7864 L 3199,7891 3199,8176 C 3199,8424 3193,8467 3148,8508 3120,8533 3086,8547 3072,8539 3059,8530 3015,8400 2975,8248 2878,7884 2874,7879 2775,7993 2731,8044 2672,8128 2644,8181 2594,8275 2594,8278 2655,8544 L 2715,8813 2660,8813 C 2629,8813 2548,8796 2479,8775 2410,8754 2348,8746 2341,8757 2328,8779 2414,9075 2459,9158 2474,9187 2571,9253 2674,9305 2863,9400 2988,9506 2988,9571 2988,9598 2936,9607 2776,9607 2648,9607 2564,9618 2564,9634 2564,9685 2690,9910 2746,9961 2786,9996 2862,10016 3014,10029 3131,10040 3234,10055 3242,10064 3251,10072 3232,10188 3202,10322 L 3146,10564 3225,10837 C 3357,11294 3441,11743 3456,12070 3473,12419 3445,12579 3327,12815 3259,12950 3243,12967 3191,12950 3159,12940 3096,12923 3051,12913 3007,12903 2948,12882 2920,12867 2877,12842 2886,12835 2989,12807 3216,12747 3279,12639 3279,12307 3279,11851 3108,11236 2897,10932 2851,10865 2829,10798 2829,10724 2829,10574 2796,10499 2666,10359 2569,10253 2552,10216 2534,10074 2523,9984 2472,9798 2420,9660 2283,9294 2210,8930 2208,8611 L 2207,8343 2348,8194 C 2430,8107 2521,7973 2568,7870 2612,7774 2690,7655 2742,7606 2849,7505 2846,7475 2733,7519 2515,7605 2514,7605 2426,7463 2381,7391 2335,7332 2323,7332 2279,7332 2141,7611 2141,7700 2141,7752 2175,7851 2222,7934 2286,8047 2296,8085 2271,8114 2219,8178 2157,8157 2035,8033 1971,7967 1911,7914 1902,7914 1883,7914 1823,8156 1823,8232 1823,8259 1891,8431 1972,8615 2054,8798 2113,8956 2105,8964 2096,8972 2029,8953 1955,8921 1880,8889 1810,8867 1798,8871 1786,8876 1803,8960 1835,9058 1884,9210 1923,9267 2091,9441 2321,9679 2389,9783 2434,9958 2469,10101 2436,10277 2367,10303 2301,10328 1861,9730 1782,9506 1755,9429 1646,9252 1540,9111 1434,8971 1347,8846 1347,8835 1347,8823 1407,8838 1479,8866 L 1612,8918 1612,8773 C 1612,8634 1606,8621 1468,8472 1367,8361 1311,8273 1278,8168 1253,8087 1240,8012 1250,8002 1260,7993 1326,8034 1398,8095 1470,8155 1541,8205 1557,8205 1574,8205 1585,8143 1585,8053 1585,7927 1570,7875 1497,7755 1384,7566 1347,7458 1347,7308 L 1347,7186 1490,7345 C 1568,7432 1642,7494 1655,7482 1695,7443 1678,7267 1623,7160 1594,7102 1526,6975 1472,6879 1419,6783 1357,6628 1335,6535 1245,6155 1315,5517 1501,5004 1509,4982 1525,5095 1536,5255 1565,5673 1609,5920 1686,6101 1806,6380 1889,6472 1814,6244 1753,6059 1691,5832 1691,5794 1691,5775 1711,5788 1735,5824 1759,5860 1852,5967 1943,6062 2034,6156 2127,6269 2150,6313 2173,6357 2192,6375 2193,6353 2195,6288 2140,5914 2074,5546 1968,4956 1942,4558 1988,4247 2022,4017 2049,3938 2178,3681 2433,3174 2669,2837 3039,2454 3244,2240 3640,1904 3808,1799 3844,1776 3910,1735 3953,1708 L 4033,1657 3966,1740 C 3930,1786 3824,1917 3731,2031 3478,2342 3238,2722 3014,3165 2806,3577 2796,3600 2664,3972 2547,4303 2554,4421 2718,4951 2792,5191 2871,5459 2893,5546 2979,5885 3067,6304 3067,6372 3067,6426 3074,6435 3098,6412 3152,6358 3077,5903 2947,5492 2755,4885 2756,4908 2922,4595 3076,4305 3091,4243 3161,3628 3225,3069 3324,2839 3738,2287 3907,2062 4099,1847 4099,1883 4099,1890 4046,2029 3982,2193 3918,2357 3850,2551 3831,2623 3801,2740 3803,2761 3841,2799 3881,2839 3885,2832 3902,2706 3912,2631 3929,2569 3940,2569 3951,2569 3968,2650 3978,2748 3995,2924 4047,3236 4061,3253 4065,3258 4242,3086 4454,2871 4780,2540 4840,2467 4840,2399 4841,2124 4985,1485 5094,1268 5148,1162 5350,972 5550,839 5707,734 6129,518 6336,435 6379,418 6460,385 6516,362 6764,262 6750,343 6500,461 5989,702 5664,1114 5581,1622 5547,1833 5547,1908 5580,1908 5595,1908 5607,1892 5607,1872 5607,1801 5743,1416 5824,1260 5869,1173 5950,1042 6005,969 6119,817 6268,653 6268,679 6268,689 6212,812 6142,952 L 6017,1207 6017,1502 C 6017,1665 6024,1805 6033,1814 6041,1822 6131,1792 6231,1746 6331,1701 6491,1629 6586,1587 6871,1460 6884,1448 7031,1190 7553,277 7657,193 8442,57 8638,23 9026,1 9293,0 L 9323,0 C 9471,0 9575,8 9575,25 9575,36 9513,61 9436,80 9072,168 9044,183 8788,435 8644,578 8521,726 8487,796 8428,923 8359,1132 8358,1187 8358,1225 8853,1232 9160,1197 L 9339,1177 9649,868 C 9983,534 10140,410 10336,326 10502,255 10932,208 11229,230 11445,245 11890,325 11919,354 11926,360 11785,375 11606,385 11428,396 11192,420 11083,438 L 10885,470 10984,513 C 11039,537 11083,560 11083,565 11083,570 11015,645 10931,732 10800,869 10585,1207 10612,1234 10630,1252 11070,1300 11217,1300 11335,1300 11376,1288 11416,1243 11506,1144 11784,960 11998,857 12194,764 12226,757 12501,748 12836,737 13143,798 13425,931 L 13583,1006 13411,988 C 13317,978 13061,970 12843,970 12508,970 12431,977 12353,1018 12257,1069 12036,1269 12036,1304 12036,1315 12092,1292 12161,1251 12333,1151 12550,1067 12720,1035 12974,988 12976,1003 12733,1163 12604,1247 12483,1336 12464,1359 12434,1395 12444,1403 12544,1418 13085,1504 13610,1643 13719,1728 13760,1759 14182,1894 14372,1936 L 14525,1970 14649,1851 C 15026,1492 15414,1204 15673,1090 15793,1038 16216,979 16216,1014 16216,1022 16122,1089 16008,1163 15700,1363 15348,1762 15041,2258 14839,2584 14805,2699 14825,2973 14844,3231 14836,3255 14679,3444 14624,3511 14549,3642 14514,3735 14478,3829 14399,4013 14337,4144 14090,4671 14090,4671 14079,5430 14069,6105 14069,6108 14139,6316 14178,6431 14261,6625 14325,6748 14389,6871 14435,6979 14427,6987 14405,7008 13764,7004 13388,6980 L 13061,6959 12925,7099 C 12850,7176 12747,7291 12696,7354 L 12604,7470 12340,7429 C 12074,7388 11704,7371 11361,7382 11111,7390 11195,7419 11639,7476 11835,7501 12156,7555 12353,7596 12549,7637 12714,7662 12718,7653 12723,7644 12795,7523 12879,7385 L 13032,7133 13718,7130 C 14601,7126 14845,7081 15066,6881 L 15174,6784 15357,6808 C 15695,6851 16005,6777 16201,6607 L 16306,6516 16459,6637 C 16544,6703 16613,6766 16613,6775 16613,6810 16525,7054 16503,7084 16490,7100 16393,7119 16287,7126 16049,7141 15865,7222 15653,7404 15522,7517 15468,7543 15271,7593 15041,7651 14837,7751 14702,7872 14610,7955 14470,8174 14470,8236 14470,8276 14446,8285 14331,8287 14254,8288 14162,8298 14126,8308 L 14060,8327 14139,8347 C 14286,8383 14602,8508 14602,8529 14602,8541 14572,8562 14536,8576 14499,8590 14437,8614 14398,8629 L 14327,8657 14465,8736 C 14540,8779 14688,8895 14793,8993 15051,9233 15157,9339 15157,9352 15157,9378 14723,9244 14448,9134 14250,9054 13798,8826 13681,8747 13561,8665 13501,8665 13252,8744 12922,8849 12883,8849 12432,8736 11982,8624 11732,8581 11798,8627 11885,8689 12742,8946 12859,8946 12926,8946 13099,8916 13245,8879 L 13509,8812 13890,9008 C 14238,9186 14583,9327 14933,9431 15033,9461 15487,9528 15592,9528 15599,9528 15612,9572 15621,9627 15650,9801 15648,9799 15787,9729 L 15915,9664 16045,9746 C 16318,9915 16555,10004 16824,10036 L 17081,10066 17155,10207 C 17195,10285 17224,10353 17218,10358 17212,10363 17158,10409 17096,10460 L 16985,10553 16832,10491 C 16522,10366 16032,10307 15858,10374 15797,10397 15775,10390 15699,10324 15617,10251 15602,10248 15438,10261 15297,10272 15240,10264 15128,10216 14949,10139 14449,10116 13908,10159 13633,10181 13503,10183 13466,10163 13438,10147 13319,10063 13203,9976 12977,9807 12804,9748 12623,9782 12508,9804 12551,9834 12756,9874 12878,9898 12957,9940 13153,10085 13288,10185 13434,10273 13478,10282 13523,10291 13754,10286 13994,10271 14233,10256 14431,10248 14436,10252 14440,10258 14299,10312 14120,10375 13751,10505 13379,10684 13274,10782 13127,10920 13028,11096 12830,11571 12783,11683 12736,11770 12724,11763 12696,11745 12668,11600 12588,11061 12543,10757 12506,10691 12249,10455 12121,10338 11998,10204 11976,10156 11884,9958 11824,9821 11824,9806 11824,9798 11776,9689 11718,9564 11636,9388 11571,9295 11430,9154 11329,9053 11234,8972 11218,8972 11201,8972 11255,9070 11338,9190 11464,9374 11692,9805 11692,9860 11692,9881 11756,10027 11857,10235 11926,10376 11970,10424 12143,10552 12256,10635 12366,10732 12387,10769 12425,10837 12470,11043 12500,11286 12527,11512 12592,11698 12754,12018 12874,12254 12947,12363 13068,12482 L 13225,12637 13187,12761 C 13146,12899 13146,12901 13286,12927 13364,12942 13389,12960 13402,13015 13437,13160 13571,13469 13658,13605 13757,13761 13954,13955 14062,14004 14128,14034 14131,14042 14114,14190 14104,14276 14090,14362 14082,14383 14063,14433 14144,14432 14231,14382 14268,14361 14308,14343 14321,14343 14346,14342 14325,14787 14299,14812 14281,14830 13984,14772 13821,14719 L 13689,14675 13795,14656 C 13853,14645 13951,14635 14012,14634 14135,14633 14174,14598 14123,14537 14095,14503 14040,14497 13837,14505 L 13585,14514 13562,14434 C 13550,14391 13491,14257 13433,14137 13331,13925 13101,13655 12838,13436 12761,13372 12756,13360 12778,13266 12812,13121 12809,13098 12757,13098 12731,13098 12666,13086 12611,13071 12517,13045 12512,13037 12512,12937 12512,12850 12490,12804 12399,12693 12338,12618 12280,12550 12273,12543 12265,12536 12135,12377 11984,12190 11833,12003 11592,11735 11448,11595 11231,11382 11181,11317 11148,11209 11127,11137 11110,11046 11110,11007 11110,10967 11091,10889 11067,10833 11023,10726 10695,10223 10652,10197 10599,10164 10686,10386 10851,10706 10941,10880 10986,11008 11013,11163 L 11050,11377 11432,11755 C 11757,12077 11987,12339 12074,12486 12086,12506 12029,12480 11948,12428 11742,12296 11162,12005 11143,12024 11135,12033 11141,12070 11158,12107 11175,12144 11189,12180 11189,12187 11189,12193 11127,12199 11051,12199 10918,12199 10906,12193 10757,12047 L 10600,11895 10618,11987 C 10627,12038 10642,12122 10650,12174 L 10665,12267 10382,12409 C 10057,12572 10019,12616 9902,12962 9834,13160 9825,13175 9809,13107 9736,12802 9749,12125 9838,11648 9855,11555 9862,11442 9852,11396 9829,11280 9652,10902 9621,10902 9607,10902 9604,10923 9614,10949 9670,11096 9711,11436 9696,11643 9688,11767 9674,12090 9665,12361 9648,12881 9665,13034 9760,13243 9788,13305 9826,13410 9844,13476 9873,13586 9870,13603 9806,13712 9759,13792 9745,13841 9762,13867 9795,13919 9793,14237 9758,14448 9728,14634 9747,14779 9846,15117 L 9899,15298 9836,15366 C 9728,15485 9616,15584 9588,15584 9574,15584 9532,15561 9496,15532 9459,15504 9421,15480 9410,15480 Z"/>
       </g>
      </g>
      <g class="com.sun.star.drawing.ClosedBezierShape">
       <g id="id11">
        <rect class="BoundingBox" stroke="none" fill="none" x="3729" y="2887" width="132" height="395"/>
        <path fill="rgb(0,0,0)" stroke="none" d="M 3844,3224 C 3866,3143 3865,2887 3843,2887 3833,2887 3803,2907 3777,2931 3721,2981 3713,3115 3759,3216 3797,3300 3823,3302 3844,3224 Z"/>
       </g>
      </g>
      <g class="com.sun.star.drawing.ClosedBezierShape">
       <g id="id12">
        <rect class="BoundingBox" stroke="none" fill="none" x="10209" y="587" width="582" height="643"/>
        <path fill="rgb(0,0,0)" stroke="none" d="M 10554,722 C 10414,885 10209,1184 10209,1227 10209,1244 10345,1121 10511,955 10738,728 10807,644 10786,619 10735,557 10673,584 10554,722 Z"/>
       </g>
      </g>
      <g class="com.sun.star.drawing.ClosedBezierShape">
       <g id="id13">
        <rect class="BoundingBox" stroke="none" fill="none" x="7833" y="234" width="1000" height="923"/>
        <path fill="rgb(0,0,0)" stroke="none" d="M 8631,428 C 8812,338 8863,286 8815,239 8798,222 8704,256 8550,333 8266,476 8079,660 7927,948 7807,1177 7803,1212 7912,1074 7958,1016 8098,867 8223,744 8383,585 8503,492 8631,428 Z"/>
       </g>
      </g>
      <g class="com.sun.star.drawing.ClosedBezierShape">
       <g id="id14">
        <rect class="BoundingBox" stroke="none" fill="none" x="7627" y="14534" width="1495" height="656"/>
        <path fill="rgb(255,0,0)" stroke="none" d="M 7803,14673 C 7515,14621 7577,14585 8017,14550 8425,14519 8853,14535 9006,14589 9101,14622 9113,14636 9120,14724 9130,14836 9006,15190 8958,15189 8941,15189 8852,15141 8759,15083 8453,14888 8061,14721 7803,14673 Z"/>
       </g>
      </g>
      <g class="com.sun.star.drawing.ClosedBezierShape">
       <g id="id15">
        <rect class="BoundingBox" stroke="none" fill="none" x="4762" y="13943" width="497" height="471"/>
        <path fill="rgb(0,0,0)" stroke="none" d="M 4783,13961 C 4799,13921 4818,13942 4881,14073 4964,14246 4976,14253 5134,14205 5259,14168 5280,14184 5237,14287 5208,14357 5190,14367 5055,14381 4973,14390 4881,14403 4850,14409 4819,14415 4787,14413 4777,14403 4754,14380 4759,14024 4783,13961 Z"/>
       </g>
      </g>
      <g class="com.sun.star.drawing.ClosedBezierShape">
       <g id="id16">
        <rect class="BoundingBox" stroke="none" fill="none" x="2723" y="12622" width="1013" height="768"/>
        <path fill="rgb(255,0,0)" stroke="none" d="M 3371,13282 C 3084,13186 3038,13161 2888,13025 2797,12942 2723,12864 2723,12853 2723,12842 2830,12887 2961,12953 3091,13018 3215,13072 3236,13072 3283,13072 3432,12842 3467,12716 3481,12665 3503,12622 3516,12622 3529,12622 3552,12691 3569,12774 3613,13005 3653,13153 3705,13277 3739,13357 3743,13389 3721,13389 3703,13389 3546,13341 3371,13282 Z"/>
       </g>
      </g>
      <g class="com.sun.star.drawing.ClosedBezierShape">
       <g id="id17">
        <rect class="BoundingBox" stroke="none" fill="none" x="3732" y="10229" width="816" height="3135"/>
        <path fill="rgb(255,0,0)" stroke="none" d="M 3797,12525 C 3864,12219 3866,12197 3851,11498 3843,11105 3823,10673 3806,10539 3771,10264 3781,10201 3853,10240 3879,10254 3936,10273 3980,10283 L 4059,10300 3973,10372 C 3883,10447 3871,10500 3904,10697 3920,10795 3922,10797 4043,10798 L 4165,10799 4052,10898 C 3946,10991 3940,11004 3940,11141 3941,11339 3960,11364 4087,11329 4143,11313 4193,11306 4199,11312 4205,11318 4154,11394 4086,11481 3975,11622 3964,11650 3980,11727 4016,11895 4039,11915 4168,11901 4307,11885 4297,11908 4099,12042 L 3966,12133 3966,12321 3966,12510 4127,12445 C 4215,12410 4300,12385 4316,12390 4331,12395 4266,12476 4169,12569 4007,12726 3893,12912 3927,12966 3943,12992 4163,12934 4324,12862 4558,12756 4595,12765 4491,12903 4332,13115 4021,13363 3915,13363 3889,13363 3843,13305 3800,13217 3710,13033 3709,12925 3797,12525 Z"/>
       </g>
      </g>
      <g class="com.sun.star.drawing.ClosedBezierShape">
       <g id="id18">
        <rect class="BoundingBox" stroke="none" fill="none" x="4213" y="7711" width="1760" height="5123"/>
        <path fill="rgb(255,0,0)" stroke="none" d="M 4681,12822 C 4681,12812 4718,12773 4764,12734 4864,12649 4919,12527 4919,12386 L 4919,12281 4728,12273 4538,12265 4665,12122 C 4787,11985 4792,11973 4776,11860 4767,11795 4760,11725 4760,11706 4760,11680 4720,11670 4616,11670 L 4471,11670 4536,11531 C 4581,11435 4601,11345 4601,11240 L 4601,11088 4437,11088 4273,11088 4387,10971 C 4496,10860 4500,10850 4482,10740 4456,10582 4432,10545 4331,10505 4283,10486 4241,10468 4237,10465 4233,10463 4260,10396 4296,10318 4386,10124 4383,10054 4282,9996 4222,9962 4205,9937 4217,9900 4226,9872 4243,9762 4256,9655 4293,9334 4322,9289 4634,9074 4718,9016 4787,8958 4787,8944 4787,8931 4694,8866 4582,8801 4469,8735 4359,8671 4337,8658 4302,8637 4303,8619 4344,8505 4397,8355 4405,8025 4360,7844 4343,7779 4336,7719 4344,7712 4351,7704 4435,7735 4531,7780 4662,7843 4750,7912 4897,8070 5066,8252 5429,8574 5465,8574 5472,8574 5586,8485 5719,8376 5852,8267 5965,8183 5971,8189 5977,8195 5933,8284 5872,8387 5657,8756 5475,9290 5434,9672 L 5415,9844 5504,9845 C 5643,9845 5674,9881 5568,9920 5399,9981 5236,10087 5163,10182 5091,10276 5091,10280 5093,10689 5096,11172 5148,11574 5282,12138 L 5377,12540 5305,12635 C 5192,12782 5122,12815 4890,12828 4775,12835 4681,12832 4681,12822 Z"/>
       </g>
      </g>
      <g class="com.sun.star.drawing.ClosedBezierShape">
       <g id="id19">
        <rect class="BoundingBox" stroke="none" fill="none" x="17493" y="10162" width="2686" height="1163"/>
        <path fill="rgb(0,0,0)" stroke="none" d="M 19482,11166 C 19220,11107 18958,11047 18900,11033 18701,10987 18232,10929 18061,10929 17924,10929 17858,10913 17731,10849 17644,10806 17550,10746 17523,10716 17475,10663 17476,10660 17585,10554 17646,10495 17696,10439 17696,10430 17696,10421 17672,10374 17643,10326 17604,10262 17599,10237 17623,10228 17709,10200 17872,10162 17908,10162 17931,10162 18085,10247 18252,10351 18630,10586 18998,10771 19503,10980 20028,11199 20273,11330 20142,11323 20114,11321 20061,11310 20024,11297 19988,11285 19744,11226 19482,11166 Z"/>
       </g>
      </g>
      <g class="com.sun.star.drawing.ClosedBezierShape">
       <g id="id20">
        <rect class="BoundingBox" stroke="none" fill="none" x="17226" y="10094" width="318" height="583"/>
        <path fill="rgb(0,0,0)" stroke="none" d="M 17306,10459 C 17357,10350 17357,10342 17313,10226 17288,10160 17273,10101 17279,10095 17286,10088 17354,10149 17430,10230 17590,10399 17594,10384 17342,10594 17226,10692 17215,10696 17233,10638 17244,10602 17277,10522 17306,10459 Z"/>
       </g>
      </g>
      <g class="com.sun.star.drawing.ClosedBezierShape">
       <g id="id21">
        <rect class="BoundingBox" stroke="none" fill="none" x="14675" y="6657" width="4072" height="3797"/>
        <path fill="rgb(255,0,0)" stroke="none" d="M 18152,10142 L 17986,10026 17702,10019 C 17494,10013 17351,9992 17167,9941 17029,9902 16873,9871 16821,9871 16676,9871 16408,9773 16190,9641 16077,9573 15942,9514 15873,9503 15806,9492 15704,9454 15646,9417 15588,9381 15445,9305 15329,9247 15042,9106 14787,8858 14720,8654 14666,8492 14660,8258 14706,8138 14784,7934 15014,7797 15367,7745 15499,7726 15610,7705 15614,7699 15751,7505 15846,7403 15920,7368 15970,7344 16149,7303 16318,7277 16487,7252 16678,7207 16744,7179 16941,7093 17130,7059 17290,7079 17432,7097 17442,7094 17615,6979 17833,6834 17981,6757 18168,6693 18327,6638 18345,6642 18365,6728 18372,6761 18415,6913 18459,7066 18503,7219 18564,7487 18596,7661 18628,7836 18657,7985 18662,7993 18667,8001 18692,8245 18716,8536 18771,9188 18746,10454 18678,10452 18669,10452 18585,10408 18490,10355 18395,10301 18243,10206 18152,10142 Z"/>
       </g>
      </g>
      <g class="com.sun.star.drawing.ClosedBezierShape">
       <g id="id22">
        <rect class="BoundingBox" stroke="none" fill="none" x="16585" y="6470" width="305" height="638"/>
        <path fill="rgb(0,0,0)" stroke="none" d="M 16718,6918 C 16718,6770 16704,6704 16651,6606 16615,6537 16585,6476 16585,6471 16585,6453 16847,6621 16878,6659 16915,6703 16845,6954 16771,7043 L 16719,7106 16718,6918 Z"/>
       </g>
      </g>
      <g class="com.sun.star.drawing.ClosedBezierShape">
       <g id="id23">
        <rect class="BoundingBox" stroke="none" fill="none" x="16841" y="5903" width="3170" height="1052"/>
        <path fill="rgb(0,0,0)" stroke="none" d="M 17159,6925 C 17038,6887 17009,6847 17009,6719 17009,6643 16990,6607 16925,6552 L 16841,6481 16965,6357 17088,6234 17492,6230 C 18030,6224 18363,6186 18987,6060 19584,5939 19788,5904 19918,5904 L 20010,5903 19917,5967 C 19782,6058 19673,6099 19249,6220 18475,6440 18393,6464 18199,6531 17933,6623 17649,6754 17471,6868 17312,6970 17307,6970 17159,6925 Z"/>
       </g>
      </g>
      <g class="com.sun.star.drawing.ClosedBezierShape">
       <g id="id24">
        <rect class="BoundingBox" stroke="none" fill="none" x="14230" y="2456" width="3869" height="4445"/>
        <path fill="rgb(255,0,0)" stroke="none" d="M 14554,6837 C 14282,6451 14175,5816 14256,5056 14304,4605 14344,4480 14603,3964 14884,3405 14935,3262 14955,2975 14971,2731 15011,2553 15064,2480 15099,2433 15116,2444 15360,2651 16127,3304 16694,3920 17305,4765 17711,5326 18144,6074 18093,6125 18058,6161 17533,6148 17248,6104 L 16999,6066 16855,6195 C 16712,6321 16566,6379 16386,6379 16274,6379 16114,6460 16044,6552 15986,6628 15955,6643 15825,6659 15739,6670 15553,6664 15400,6647 L 15128,6615 15011,6717 C 14947,6774 14845,6835 14785,6853 14724,6871 14659,6892 14641,6899 14622,6906 14583,6878 14554,6837 Z"/>
       </g>
      </g>
     </g>
    </g>
   </g>
  </g>
 </g>
</svg>